<svg width="41" height="40" viewBox="0 0 41 40" fill="none" xmlns="http://www.w3.org/2000/svg">
<g clip-path="url(#clip0)">
<path d="M40.5229 35.4996C40.5187 36.6944 40.0405 37.8389 39.193 38.6823C38.3455 39.5257 37.1979 39.9992 36.0015 39.9992H4.50019C3.30704 39.9951 2.16403 39.5195 1.32084 38.6764C0.477644 37.8333 0.00279019 36.6912 0 35.4996L0 8.53327C0.0245923 7.3033 0.489224 6.12276 1.30981 5.20527C2.1304 4.28779 3.25274 3.69397 4.47372 3.53128L36.0439 0.0256642C36.6099 -0.050071 37.1857 -0.00246135 37.7316 0.165219C38.2775 0.3329 38.7806 0.616672 39.2062 0.997022C39.6318 1.37737 39.9699 1.84527 40.1972 2.36855C40.4245 2.89182 40.5356 3.45806 40.5229 4.02831V35.4996Z" fill="#11BDCF"/>
<path d="M27.6576 23.9633V32.6401C27.6581 32.7119 27.641 32.7826 27.6078 32.8462C27.5746 32.9098 27.5262 32.9643 27.467 33.005C24.5396 34.8776 21.1533 35.911 17.6778 35.9924C10.3716 35.9924 4.84961 30.7049 4.84961 23.7254C4.84961 16.7459 10.5093 11.5324 18.0855 11.5324C21.5223 11.5423 24.8581 12.6938 27.5676 14.8054C27.656 14.8821 27.7109 14.9901 27.7208 15.1066C27.7307 15.2231 27.6947 15.3388 27.6206 15.4293L24.751 18.8873C24.7143 18.932 24.6689 18.969 24.6176 18.9959C24.5664 19.0228 24.5102 19.0393 24.4525 19.0442C24.3947 19.0491 24.3366 19.0424 24.2815 19.0246C24.2264 19.0067 24.1754 18.978 24.1316 18.9402C22.426 17.5056 20.2828 16.6927 18.0537 16.6348C17.1281 16.6317 16.2113 16.8141 15.3576 17.1714C14.5039 17.5287 13.7308 18.0535 13.084 18.7148C12.4372 19.3761 11.9299 20.1603 11.5922 21.021C11.2545 21.8817 11.0933 22.8013 11.1181 23.7254C11.0911 24.6591 11.2526 25.5886 11.5929 26.4586C11.9333 27.3287 12.4455 28.1213 13.0992 28.7894C13.7528 29.4575 14.5344 29.9873 15.3975 30.3473C16.2605 30.7073 17.1873 30.89 18.1225 30.8847C19.5163 30.8169 20.8801 30.4566 22.125 29.8272C22.2008 29.7906 22.2647 29.7336 22.3096 29.6625C22.3546 29.5915 22.3786 29.5093 22.3792 29.4253V23.9633C22.3792 23.8469 22.4255 23.7353 22.5079 23.653C22.5903 23.5707 22.702 23.5245 22.8186 23.5245H27.2182C27.3347 23.5245 27.4465 23.5707 27.5289 23.653C27.6113 23.7353 27.6576 23.8469 27.6576 23.9633Z" fill="#113255"/>
<path d="M35.6735 33.5128C35.6886 33.8425 35.6347 34.1717 35.5152 34.4793C35.3958 34.787 35.2134 35.0664 34.9797 35.2998C34.7461 35.5331 34.4663 35.7153 34.1582 35.8346C33.8502 35.9539 33.5206 36.0077 33.1905 35.9927C32.7039 35.9895 32.2291 35.8428 31.8258 35.5708C31.4225 35.2989 31.1088 34.9139 30.924 34.4643C30.7393 34.0147 30.6917 33.5206 30.7874 33.0442C30.8831 32.5677 31.1178 32.1301 31.4619 31.7865C31.806 31.4428 32.2441 31.2085 32.7212 31.1129C33.1983 31.0173 33.693 31.0648 34.1432 31.2493C34.5933 31.4338 34.9788 31.7472 35.2511 32.1499C35.5234 32.5527 35.6704 33.0269 35.6735 33.5128Z" fill="#113255"/>
</g>
<defs>
<clipPath id="clip0">
<rect width="40.5229" height="40" fill="white"/>
</clipPath>
</defs>
</svg>
