<svg width="26" height="25" viewBox="0 0 26 25" fill="none" xmlns="http://www.w3.org/2000/svg">
<g clip-path="url(#clip0_1777_3702)">
<path fill-rule="evenodd" clip-rule="evenodd" d="M20.3632 5.42884C21.9144 7.0768 22.3652 9.54574 22.2415 12.8326C22.1243 16.1043 21.4827 18.5222 19.803 20.0479C18.1256 21.5717 15.6203 22.0164 12.3009 21.9012C8.97803 21.7858 6.52243 21.1541 4.97281 19.5C3.42535 17.8482 2.97373 15.3813 3.09076 12.1128C3.20791 8.84077 3.84946 6.42276 5.52926 4.89687C7.20672 3.3731 9.71201 2.9284 13.0314 3.04364C16.3511 3.15888 18.8109 3.77979 20.3632 5.42884ZM19.1427 6.54271C18.0668 5.3997 16.2006 4.79324 12.9728 4.68118C9.74462 4.56912 7.82542 5.04039 6.65757 6.10124C5.49205 7.15997 4.86745 8.99522 4.75377 12.1705C4.63996 15.3492 5.11856 17.239 6.19591 18.389C7.2711 19.5367 9.13489 20.1517 12.3595 20.2636C15.5877 20.3757 17.5069 19.9044 18.6747 18.8436C19.8402 17.7848 20.4648 15.9496 20.5785 12.7743L20.5786 12.7728C20.699 9.57415 20.2195 7.68665 19.1427 6.54271Z" fill="#959595"/>
<path fill-rule="evenodd" clip-rule="evenodd" d="M14.7213 7.14152C15.1808 7.13977 15.5547 7.50516 15.5565 7.95764L15.5918 16.9688C15.5935 17.4213 15.2225 17.7895 14.763 17.7912C14.3034 17.793 13.9295 17.4276 13.9277 16.9751L13.8924 7.96395C13.8907 7.51148 14.2617 7.14326 14.7213 7.14152Z" fill="#959595"/>
<path fill-rule="evenodd" clip-rule="evenodd" d="M10.5694 7.1536C11.0289 7.15186 11.4029 7.51725 11.4046 7.96972L11.4399 16.9809C11.4417 17.4334 11.0706 17.8016 10.6111 17.8033C10.1516 17.8051 9.77764 17.4397 9.77587 16.9872L9.74059 7.97604C9.73882 7.52356 10.1099 7.15535 10.5694 7.1536Z" fill="#959595"/>
<path fill-rule="evenodd" clip-rule="evenodd" d="M18.0677 10.4077C18.0695 10.8601 17.6984 11.2284 17.2389 11.2301L8.08763 11.2648C7.62813 11.2666 7.25418 10.9012 7.25241 10.4487C7.25064 9.99625 7.62171 9.62803 8.08122 9.62629L17.2325 9.59155C17.692 9.5898 18.0659 9.95519 18.0677 10.4077Z" fill="#959595"/>
<path fill-rule="evenodd" clip-rule="evenodd" d="M18.0799 14.4961C18.0817 14.9486 17.7106 15.3168 17.2511 15.3185L8.09984 15.3533C7.64033 15.355 7.26639 14.9896 7.26462 14.5372C7.26285 14.0847 7.63392 13.7165 8.09343 13.7147L17.2447 13.68C17.7042 13.6782 18.0781 14.0436 18.0799 14.4961Z" fill="#959595"/>
</g>
<defs>
<clipPath id="clip0_1777_3702">
<rect width="19.937" height="19.6947" fill="white" transform="matrix(0.948288 0.317411 -0.326314 0.945262 6.42651 0)"/>
</clipPath>
</defs>
</svg>
