<svg xmlns="http://www.w3.org/2000/svg" fill="none" viewBox="0 0 370 289"><g opacity=".2" style="mix-blend-mode:screen"><mask id="a" width="415" height="415" x="-23" y="-126" maskUnits="userSpaceOnUse" style="mask-type:alpha"><circle r="207.5" fill="#C4C4C4" transform="matrix(-1 0 0 1 184.5 81.5)"/></mask><g stroke="#F7A43F" stroke-miterlimit="10" stroke-width="5" mask="url(#a)"><path d="M447.54 1.102S342.078-17.276 314.912-84.542c-25.9-64.215-132.999-80.585-132.999-80.585"/><path d="M447.54 27.965s-124.887-20.91-157.039-99.56c-30.664-75.227-157.487-93.532-157.487-93.532"/><path d="M447.54 54.752S303.153 31.387 266.014-58.796C230.662-144.813 84.116-165.127 84.116-165.127"/><path d="M447.54 81.54S283.653 55.72 241.528-45.925c-40.041-96.88-206.236-119.203-206.236-119.203"/><path d="M447.54 108.401S264.228 80.125 217.116-33.051C172.237-140.87-13.606-165.127-13.606-165.127"/><path d="M447.54 135.188S244.728 104.382 192.63-20.178C143.062-138.861-62.504-165.127-62.504-165.127"/><path d="M447.54 161.975S225.228 128.714 168.218-7.38c-54.331-129.472-279.62-157.747-279.62-157.747"/><path d="M447.54 188.837S205.804 153.121 143.732 5.567c-59.02-140.484-303.958-170.694-303.958-170.694"/><path d="M447.54 215.622S186.303 177.453 119.32 18.44C55.537-132.908-209.124-165.127-209.124-165.127"/><path d="M447.54 242.484s-280.736-40.7-352.707-211.171C26.361-130.9-258.022-165.127-258.022-165.127"/><path d="M447.54 269.274S147.379 226.116 70.422 44.186C-2.814-128.964-306.92-165.127-306.92-165.127"/><path d="M447.54 296.058S127.879 250.448 45.935 56.984c-77.924-183.939-401.751-222.111-401.751-222.111"/><path d="M447.54 322.92S108.379 274.78 21.45 69.931c-82.614-194.877-426.092-235.058-426.092-235.058"/><path d="M447.54 349.709S88.954 299.112-2.963 82.729C-90.34-123.012-453.54-165.127-453.54-165.127"/><path d="M447.54 376.499S69.454 323.444-27.449 95.602c-92.065-216.604-474.989-260.729-474.989-260.729"/><path d="M447.54 403.361S49.954 347.848-51.86 108.475c-96.829-227.468-499.476-273.602-499.476-273.602"/><path d="M447.54 430.145S30.53 372.107-76.347 121.348C-177.865-117.059-600.16-165.127-600.16-165.127"/></g></g></svg>